<svg xmlns="http://www.w3.org/2000/svg" width="1000" height="538" viewBox="0 0 1000 538">
<rect width="100%" height="100%" fill="#ffffff"/>
<style>text{font-family:Arial,sans-serif;fill:#17212b}.title{font-size:24px;font-weight:700}.sub{font-size:14px;fill:#5b6773}.label{font-size:13px}.value{font-size:13px;font-weight:700}</style>
<text class="title" x="24" y="34">Customer states by payment value</text>
<text class="sub" x="24" y="58">All orders with recorded payments</text>
<text class="label" x="248" y="110" text-anchor="end">SP</text>
<rect x="260" y="96" width="610.0" height="20" rx="3" fill="#4c78a8"/>
<text class="value" x="878.0" y="111">R$ 6.00M</text>
<text class="label" x="248" y="144" text-anchor="end">RJ</text>
<rect x="260" y="130" width="218.1" height="20" rx="3" fill="#4c78a8"/>
<text class="value" x="486.1" y="145">R$ 2.14M</text>
<text class="label" x="248" y="178" text-anchor="end">MG</text>
<rect x="260" y="164" width="190.4" height="20" rx="3" fill="#4c78a8"/>
<text class="value" x="458.4" y="179">R$ 1.87M</text>
<text class="label" x="248" y="212" text-anchor="end">RS</text>
<rect x="260" y="198" width="90.6" height="20" rx="3" fill="#4c78a8"/>
<text class="value" x="358.6" y="213">R$ 0.89M</text>
<text class="label" x="248" y="246" text-anchor="end">PR</text>
<rect x="260" y="232" width="82.5" height="20" rx="3" fill="#4c78a8"/>
<text class="value" x="350.5" y="247">R$ 0.81M</text>
<text class="label" x="248" y="280" text-anchor="end">SC</text>
<rect x="260" y="266" width="63.4" height="20" rx="3" fill="#4c78a8"/>
<text class="value" x="331.4" y="281">R$ 0.62M</text>
<text class="label" x="248" y="314" text-anchor="end">BA</text>
<rect x="260" y="300" width="62.7" height="20" rx="3" fill="#4c78a8"/>
<text class="value" x="330.7" y="315">R$ 0.62M</text>
<text class="label" x="248" y="348" text-anchor="end">DF</text>
<rect x="260" y="334" width="36.1" height="20" rx="3" fill="#4c78a8"/>
<text class="value" x="304.1" y="349">R$ 0.36M</text>
<text class="label" x="248" y="382" text-anchor="end">GO</text>
<rect x="260" y="368" width="35.6" height="20" rx="3" fill="#4c78a8"/>
<text class="value" x="303.6" y="383">R$ 0.35M</text>
<text class="label" x="248" y="416" text-anchor="end">ES</text>
<rect x="260" y="402" width="33.1" height="20" rx="3" fill="#4c78a8"/>
<text class="value" x="301.1" y="417">R$ 0.33M</text>
<text class="label" x="248" y="450" text-anchor="end">PE</text>
<rect x="260" y="436" width="33.0" height="20" rx="3" fill="#4c78a8"/>
<text class="value" x="301.0" y="451">R$ 0.32M</text>
<text class="label" x="248" y="484" text-anchor="end">CE</text>
<rect x="260" y="470" width="28.4" height="20" rx="3" fill="#4c78a8"/>
<text class="value" x="296.4" y="485">R$ 0.28M</text>
</svg>